<svg width="538" height="76" viewBox="0 0 538 76" fill="none" xmlns="http://www.w3.org/2000/svg">
<path d="M52.1277 41.0268L52.9184 39.5877C59.7264 27.2369 65.3404 14.2773 76.4577 4.99435C81.1862 1.04874 92.6909 -1.37874 90.4295 10.553C86.7844 23.9476 69.6181 38.4412 54.144 40.7422L52.1277 41.0268ZM81.3838 59.2447C86.8239 59.474 102.591 53.6307 102.409 45.518C101.594 41.2403 96.4784 41.8729 93.5291 42.7506C85.9858 44.9962 79.3912 53.4251 76.0703 58.7861C73.6823 62.6447 70.3535 65.4518 66.0362 67.0332C59.3152 69.4764 52.3017 69.7374 45.8732 68.6541C41.7774 67.9583 40.4015 67.5946 33.214 65.8392C41.0183 59.5215 45.9602 50.4758 51.5267 42.3948C61.0469 41.1692 79.7708 36.1877 90.2555 17.021C93.7188 10.6875 94.9128 1.6892 86.4286 0.194778C81.4945 -0.674995 77.1694 1.4599 72.4093 4.77295C58.8882 14.1744 51.7877 28.0435 44.8532 41.8413C41.8643 42.2366 38.2429 42.0231 35.9894 41.5645C34.5977 41.2878 30.0038 40.6394 23.5674 36.4724C17.2971 32.4239 11.6357 22.4927 14.7273 10.3395L13.0431 11.0117C11.0505 16.594 12.2682 24.2639 15.5734 30.1072C18.6334 35.5156 22.4446 38.4966 29.1024 41.0901C31.0633 41.8492 33.9335 43.0985 42.3625 43.3436L44.3788 43.2487L43.3588 45.186C41.042 49.5665 39.0178 53.5516 36.195 57.7503C35.8866 58.201 35.4122 59.0233 35.0326 59.5214C33.4275 61.6484 32.1465 63.1033 30.3437 65.1117C21.6143 62.6843 10.9161 61.261 4.54299 63.6568C4.54299 63.6568 0.170426 64.9457 0.004376 68.583C-0.209124 73.343 7.4607 74.4342 7.4607 74.4342C15.3678 75.7705 22.6739 72.9476 30.4782 67.8555C37.9661 70.4253 47.0356 76.2844 56.2789 75.0509C58.319 74.7821 60.7069 74.2681 62.6204 73.2719C64.273 72.4179 65.9176 71.6351 67.3488 70.4727C70.0372 68.2825 73.54 64.6611 75.3191 61.688C74.2122 64.8983 74.3782 67.2546 74.9554 69.3895C75.5089 71.4216 77.3196 73.3983 79.9843 74.0072C89.6546 76.2133 97.1584 68.7964 102.685 61.261L101.658 61.3401C98.3445 65.8392 90.1686 75.0272 81.5262 72.8607C76.1415 70.1881 79.3122 63.3327 81.3838 59.2447ZM82.0639 57.9321C84.5388 53.607 89.2434 46.3009 95.5849 43.3673C97.3956 42.5371 99.4989 43.0748 100.124 44.7432C100.638 46.1032 100.851 47.6609 98.0756 50.5707C96.3835 52.3498 89.1723 57.5289 82.0639 57.9321ZM25.6707 68.5118C22.8558 70.2039 14.7985 74.1574 8.46492 73.256C8.40958 73.2481 1.39602 72.4574 0.98483 69.3578C0.494605 65.6573 4.6458 64.5029 7.31048 63.9573C12.7742 62.8582 23.7493 64.8983 28.2958 66.9146L27.9479 67.1281L25.6707 68.5118Z" fill="#9F9F9F"/>
<path d="M489.001 73.4933V27.0156L537.06 75.0747L537.273 3.81625L527.144 3.95064V50.7209L479.085 2.6618L479.299 73.5644L489.001 73.4933Z" fill="#9F9F9F"/>
<path d="M314.136 73.4933H325.095V3.81625H314.136V73.4933Z" fill="#9F9F9F"/>
<path d="M404.443 73.4933H415.402V3.81625H404.443V73.4933Z" fill="#9F9F9F"/>
<path d="M247.748 3.1283H208.514V73.4933H249.583V64.1867H219.512V42.5529H246.08V33.3808H219.512V12.4824H247.748V3.1283Z" fill="#9F9F9F"/>
<path d="M468.229 3.1283H428.994V73.4933H470.063V64.1867H439.993V42.5529H466.56V33.3808H439.993V12.4824H468.229V3.1283Z" fill="#9F9F9F"/>
<path d="M131.428 73.4063L135.95 31.5858L160.091 73.5565L184.128 31.7993L188.596 73.4932L199.073 73.4063L189.521 2.21902L160.186 53.947L130.969 2.28226L121.259 73.4063H131.428Z" fill="#9F9F9F"/>
<path d="M286.066 43.2803C288.636 42.3631 291.134 40.6868 293.949 37.1366C296.772 33.5942 298.63 28.9685 298.63 24.0266C298.63 17.7168 295.966 12.4823 291.474 8.63158C287.402 5.16829 280.555 3.63432 271.383 3.63432H259.119V73.3114H269.564V45.6683H275.154L294.345 73.3114H306.711L286.066 43.2803ZM273.051 37.5082H269.73L269.754 12.2926H273.47C283.093 12.2926 287.9 16.6968 287.9 25.0387C287.9 33.104 282.943 37.5082 273.051 37.5082Z" fill="#9F9F9F"/>
<path d="M380.769 12.7987C377.227 9.54887 373.281 7.2479 368.932 5.89579C364.884 4.51204 359.365 3.81625 352.375 3.81625H337.794V73.4933H352.201C359.246 73.4933 364.686 72.8449 368.529 71.5481C372.64 70.2593 376.918 68.2034 380.666 64.8983C388.138 58.2801 392.258 49.3609 392.258 38.6547C392.258 27.9723 387.933 19.3536 380.769 12.7987ZM373.297 57.094C370.759 59.3792 367.928 61.0554 364.797 62.0992C361.658 63.0955 357.728 63.5936 352.999 63.5936H348.247V13.7159H352.999C361.974 13.7159 368.774 15.835 373.384 20.0732C378.508 24.8253 381.488 31.0165 381.488 38.6547C381.488 46.2297 378.476 52.3735 373.297 57.094Z" fill="#9F9F9F"/>
</svg>
