<svg width="538" height="76" viewBox="0 0 538 76" fill="none" xmlns="http://www.w3.org/2000/svg">
<path d="M52.1277 41.0269L52.9184 39.5878C59.7264 27.237 65.3404 14.2773 76.4577 4.99445C81.1862 1.04883 92.6909 -1.37865 90.4295 10.5531C86.7844 23.9477 69.6181 38.4413 54.144 40.7423L52.1277 41.0269ZM81.3838 59.2448C86.8239 59.4741 102.591 53.6308 102.409 45.5181C101.594 41.2404 96.4784 41.873 93.5291 42.7507C85.9858 44.9963 79.3912 53.4252 76.0703 58.7862C73.6823 62.6448 70.3535 65.4518 66.0362 67.0332C59.3152 69.4765 52.3017 69.7375 45.8732 68.6542C41.7774 67.9584 40.4015 67.5946 33.214 65.8393C41.0183 59.5215 45.9602 50.4759 51.5267 42.3948C61.0469 41.1692 79.7708 36.1878 90.2555 17.0211C93.7188 10.6876 94.9128 1.68929 86.4286 0.19487C81.4945 -0.674904 77.1694 1.45999 72.4093 4.77304C58.8882 14.1745 51.7877 28.0436 44.8532 41.8414C41.8643 42.2367 38.2429 42.0232 35.9894 41.5646C34.5977 41.2879 30.0038 40.6395 23.5674 36.4725C17.2971 32.424 11.6357 22.4928 14.7273 10.3396L13.0431 11.0117C11.0505 16.5941 12.2682 24.264 15.5734 30.1073C18.6334 35.5157 22.4446 38.4967 29.1024 41.0902C31.0633 41.8493 33.9335 43.0986 42.3625 43.3437L44.3788 43.2488L43.3588 45.1861C41.042 49.5666 39.0178 53.5517 36.195 57.7504C35.8866 58.2011 35.4122 59.0234 35.0326 59.5215C33.4275 61.6485 32.1465 63.1034 30.3437 65.1118C21.6143 62.6843 10.9161 61.2611 4.54299 63.6569C4.54299 63.6569 0.170426 64.9458 0.004376 68.583C-0.209124 73.3431 7.4607 74.4343 7.4607 74.4343C15.3678 75.7706 22.6739 72.9477 30.4782 67.8556C37.9661 70.4254 47.0356 76.2845 56.2789 75.051C58.319 74.7822 60.7069 74.2682 62.6204 73.272C64.273 72.418 65.9176 71.6351 67.3488 70.4728C70.0372 68.2826 73.54 64.6612 75.3191 61.6881C74.2122 64.8984 74.3782 67.2546 74.9554 69.3895C75.5089 71.4217 77.3196 73.3984 79.9843 74.0073C89.6546 76.2134 97.1584 68.7965 102.685 61.2611L101.658 61.3402C98.3445 65.8393 90.1686 75.0273 81.5262 72.8608C76.1415 70.1882 79.3122 63.3328 81.3838 59.2448ZM82.0639 57.9322C84.5388 53.6071 89.2434 46.301 95.5849 43.3674C97.3956 42.5372 99.4989 43.0749 100.124 44.7432C100.638 46.1033 100.851 47.661 98.0756 50.5708C96.3835 52.3499 89.1723 57.529 82.0639 57.9322ZM25.6707 68.5119C22.8558 70.204 14.7985 74.1575 8.46492 73.2561C8.40958 73.2482 1.39602 72.4575 0.98483 69.3579C0.494605 65.6574 4.6458 64.503 7.31048 63.9574C12.7742 62.8583 23.7493 64.8983 28.2958 66.9146L27.9479 67.1282L25.6707 68.5119Z" fill="#B9B9B9"/>
<path d="M489.001 73.4933V27.0156L537.06 75.0747L537.273 3.81628L527.144 3.95067V50.721L479.085 2.66183L479.299 73.5645L489.001 73.4933Z" fill="#B9B9B9"/>
<path d="M314.136 73.4934H325.095V3.8164H314.136V73.4934Z" fill="#B9B9B9"/>
<path d="M404.443 73.4934H415.402V3.8164H404.443V73.4934Z" fill="#B9B9B9"/>
<path d="M247.748 3.12846H208.514V73.4934H249.583V64.1868H219.512V42.5531H246.08V33.3809H219.512V12.4826H247.748V3.12846Z" fill="#B9B9B9"/>
<path d="M468.229 3.12846H428.994V73.4934H470.063V64.1868H439.993V42.5531H466.56V33.3809H439.993V12.4826H468.229V3.12846Z" fill="#B9B9B9"/>
<path d="M131.428 73.4064L135.95 31.586L160.091 73.5566L184.128 31.7995L188.596 73.4934L199.073 73.4064L189.521 2.21917L160.186 53.9472L130.969 2.28242L121.259 73.4064H131.428Z" fill="#B9B9B9"/>
<path d="M286.066 43.2805C288.636 42.3633 291.134 40.687 293.949 37.1367C296.772 33.5943 298.63 28.9687 298.63 24.0268C298.63 17.7169 295.966 12.4825 291.474 8.63173C287.402 5.16844 280.555 3.63448 271.383 3.63448H259.119V73.3115H269.564V45.6684H275.154L294.345 73.3115H306.711L286.066 43.2805ZM273.051 37.5083H269.73L269.754 12.2927H273.47C283.093 12.2927 287.9 16.697 287.9 25.0389C287.9 33.1041 282.943 37.5083 273.051 37.5083Z" fill="#B9B9B9"/>
<path d="M380.769 12.7988C377.227 9.54903 373.281 7.24805 368.932 5.89594C364.884 4.51219 359.365 3.8164 352.375 3.8164H337.794V73.4934H352.201C359.246 73.4934 364.686 72.845 368.529 71.5483C372.64 70.2594 376.918 68.2036 380.666 64.8984C388.138 58.2802 392.258 49.361 392.258 38.6549C392.258 27.9724 387.933 19.3538 380.769 12.7988ZM373.297 57.0942C370.759 59.3793 367.928 61.0556 364.797 62.0993C361.658 63.0956 357.728 63.5938 352.999 63.5938H348.247V13.716H352.999C361.974 13.716 368.774 15.8351 373.384 20.0733C378.508 24.8255 381.488 31.0167 381.488 38.6549C381.488 46.2298 378.476 52.3737 373.297 57.0942Z" fill="#B9B9B9"/>
</svg>
